<svg xmlns="http://www.w3.org/2000/svg" xmlns:xlink="http://www.w3.org/1999/xlink" version="1.1" x="0px" y="0px" viewBox="0 0 100 125" style="enable-background:new 0 0 100 100;" xml:space="preserve"><g><g><g><g><g><g><g><path d="M72.78,97.41H27.22c-6.82,0-12.38-5.55-12.38-12.38V14.97c0-6.82,5.55-12.38,12.38-12.38h24.95         c3.3,0,6.53,1.35,8.84,3.72l20.61,21.03c2.28,2.33,3.54,5.4,3.54,8.66v49.03C85.15,91.86,79.6,97.41,72.78,97.41z          M27.22,6.59c-4.62,0-8.38,3.76-8.38,8.38v70.07c0,4.62,3.76,8.38,8.38,8.38h45.56c4.62,0,8.38-3.76,8.38-8.38V36         c0-2.21-0.85-4.29-2.39-5.86L58.16,9.11c-1.57-1.6-3.75-2.51-5.98-2.51H27.22z"/></g></g></g></g></g><g><g><g><g><g><path d="M82.19,32.21H66.91c-6.27,0-11.38-5.1-11.38-11.38V5.56c0-0.55,0.45-1,1-1s1,0.45,1,1v15.28         c0,5.17,4.21,9.38,9.38,9.38h15.28c0.55,0,1,0.45,1,1S82.74,32.21,82.19,32.21z"/></g></g></g></g></g></g><g><g><g><g><g><g><path d="M44.92,81c-3.23,0-6.45-1.23-8.91-3.68c-4.91-4.91-4.91-12.91,0-17.82l16.54-16.54c1.67-1.67,3.9-2.6,6.27-2.6         c2.37,0,4.59,0.92,6.27,2.6c1.67,1.67,2.6,3.9,2.6,6.27c0,2.37-0.92,4.59-2.6,6.27L51.6,68.98c-2.15,2.15-5.66,2.15-7.81,0         c-2.15-2.15-2.15-5.66,0-7.81l8.06-8.06c0.39-0.39,1.02-0.39,1.41,0s0.39,1.02,0,1.41l-8.06,8.06         c-1.37,1.37-1.37,3.61,0,4.98s3.61,1.37,4.98,0l13.48-13.48c1.3-1.3,2.01-3.02,2.01-4.85c0-1.83-0.71-3.56-2.01-4.85         c-1.3-1.3-3.02-2.01-4.85-2.01c-1.83,0-3.56,0.71-4.85,2.01L37.42,60.92c-4.13,4.13-4.13,10.86,0,14.99         c4.13,4.13,10.86,4.13,14.99,0l12.93-12.93c0.39-0.39,1.02-0.39,1.41,0s0.39,1.02,0,1.41L53.83,77.32         C51.37,79.77,48.14,81,44.92,81z"/></g></g></g></g></g></g></g><text x="0" y="115" fill="#000000" font-size="5px" font-weight="bold" font-family="'Helvetica Neue', Helvetica, Arial-Unicode, Arial, Sans-serif">Created by Line Icons Pro</text><text x="0" y="120" fill="#000000" font-size="5px" font-weight="bold" font-family="'Helvetica Neue', Helvetica, Arial-Unicode, Arial, Sans-serif">from the Noun Project</text></svg>