<svg xmlns="http://www.w3.org/2000/svg" data-name="Layer 1" viewBox="0 0 100 125" x="0px" y="0px"><title>14</title><g data-name="Group" fill="#006797"><path data-name="Compound Path" d="M84.35,34a2,2,0,0,0-.62-1.45l-25.38-24A2,2,0,0,0,57,8H25.65a10,10,0,0,0-10,10V82a10,10,0,0,0,10,10h48.7a10,10,0,0,0,10-10ZM59,14.65l18.36,17.4H60a1,1,0,0,1-1-1ZM74.35,88H25.65a6,6,0,0,1-6-6V18a6,6,0,0,1,6-6H55V31.05a5,5,0,0,0,5,5H80.35V82A6,6,0,0,1,74.35,88Z"/><path data-name="Path" d="M68.77,73.15H31a2,2,0,0,0,0,4H68.77a2,2,0,0,0,0-4Z"/><path data-name="Path" d="M68.77,60.18H31a2,2,0,0,0,0,4H68.77a2,2,0,0,0,0-4Z"/><path data-name="Path" d="M68.77,45H31a2,2,0,0,0,0,4H68.77a2,2,0,0,0,0-4Z"/><path data-name="Path" d="M31,35H45a2,2,0,0,0,0-4H31a2,2,0,0,0,0,4Z"/></g></svg>