<svg xmlns="http://www.w3.org/2000/svg" xmlns:xlink="http://www.w3.org/1999/xlink" xml:space="preserve" version="1.1" style="shape-rendering:geometricPrecision;text-rendering:geometricPrecision;image-rendering:optimizeQuality;" viewBox="0 0 847 1058.75" x="0px" y="0px" fill-rule="evenodd" clip-rule="evenodd"><defs><style type="text/css">
   
    .fil0 {fill:black;fill-rule:nonzero}
   
  </style></defs><g><path class="fil0" d="M351 139c114,0 207,93 207,208 0,51 -19,99 -50,135l189 189c20,20 -10,50 -30,30l-190 -190c-35,27 -79,43 -126,43 -115,0 -208,-93 -208,-207 0,-115 93,-208 208,-208zm165 208c0,-91 -74,-165 -165,-165 -92,0 -165,74 -165,165 0,91 73,165 165,165 91,0 165,-74 165,-165z"/></g><text x="0" y="862" fill="#000000" font-size="5px" font-weight="bold" font-family="'Helvetica Neue', Helvetica, Arial-Unicode, Arial, Sans-serif">Created by adi muhammad ilyas</text><text x="0" y="867" fill="#000000" font-size="5px" font-weight="bold" font-family="'Helvetica Neue', Helvetica, Arial-Unicode, Arial, Sans-serif">from the Noun Project</text></svg>