<svg xmlns="http://www.w3.org/2000/svg" xmlns:xlink="http://www.w3.org/1999/xlink" viewBox="0 0 50 52.5" version="1.1" x="0px" y="0px"><title>download</title><desc>Created with Sketch.</desc><g stroke="none" stroke-width="1" fill="none" fill-rule="evenodd"><g transform="translate(-418.000000, -70.000000)" fill="#000000"><g transform="translate(418.000000, 70.000000)"><path d="M46,38 L4,38 L4,28 C4,26.8954305 3.1045695,26 2,26 C0.8954305,26 0,26.8954305 0,28 L0,40 C0,41.1045695 0.8954305,42 2,42 L48,42 C49.1045695,42 50,41.1045695 50,40 L50,28 C50,26.8954305 49.1045695,26 48,26 C46.8954305,26 46,26.8954305 46,28 L46,38 Z"/><path d="M24.9598801,28.7588699 L17.8578644,21.6568542 C17.0768158,20.8758057 15.8104858,20.8758057 15.0294373,21.6568542 C14.2483887,22.4379028 14.2483887,23.7042328 15.0294373,24.4852814 L23.5147186,32.9705627 C24.2957672,33.7516113 25.5620972,33.7516113 26.3431458,32.9705627 L34.8284271,24.4852814 C35.6094757,23.7042328 35.6094757,22.4379028 34.8284271,21.6568542 C34.0473785,20.8758057 32.7810486,20.8758057 32,21.6568542 L24.9598801,28.7588699 Z"/><path d="M27,2 C27,0.8954305 26.1045695,0 25,0 C23.8954305,0 23,0.8954305 23,2 L23,30 C23,31.1045695 23.8954305,32 25,32 C26.1045695,32 27,31.1045695 27,30 L27,2 Z"/></g></g></g><text x="0" y="57" fill="#000000" font-size="5px" font-weight="bold" font-family="'Helvetica Neue', Helvetica, Arial-Unicode, Arial, Sans-serif">Created by Andrejs Kirma</text><text x="0" y="62" fill="#000000" font-size="5px" font-weight="bold" font-family="'Helvetica Neue', Helvetica, Arial-Unicode, Arial, Sans-serif">from the Noun Project</text></svg>