<svg xmlns="http://www.w3.org/2000/svg" version="1.1" viewBox="0 0 32 32" x="0px" y="0px"><title>previous-1</title><path fill="#006797" d="M16 0.6c-8.498 0-15.4 6.903-15.4 15.4s6.903 15.4 15.4 15.4c8.498 0 15.4-6.903 15.4-15.4s-6.903-15.4-15.4-15.4zM16 1.641c7.914 0 14.359 6.445 14.359 14.359s-6.445 14.359-14.359 14.359c-7.914 0-14.359-6.445-14.359-14.359s6.445-14.359 14.359-14.359zM17.754 10.76c-0.135 0-0.265 0.048-0.369 0.152l-4.709 4.709c-0.095 0.095-0.152 0.235-0.152 0.367s0.056 0.269 0.152 0.365l4.715 4.721c0.099 0.099 0.238 0.152 0.367 0.152 0.131 0 0.263-0.052 0.363-0.152h0.002c0.209-0.209 0.209-0.529 0-0.738l-4.342-4.342 4.342-4.342c0.208-0.208 0.208-0.532 0-0.74-0.104-0.104-0.234-0.152-0.369-0.152z"/></svg>