<svg xmlns:dc="http://purl.org/dc/elements/1.1/" xmlns:cc="http://creativecommons.org/ns#" xmlns:rdf="http://www.w3.org/1999/02/22-rdf-syntax-ns#" xmlns:svg="http://www.w3.org/2000/svg" xmlns="http://www.w3.org/2000/svg" xmlns:sodipodi="http://sodipodi.sourceforge.net/DTD/sodipodi-0.dtd" xmlns:inkscape="http://www.inkscape.org/namespaces/inkscape" version="1.1" x="0px" y="0px" viewBox="0 0 100 125"><g transform="translate(0,-952.36218)"><path style="text-indent:0;text-transform:none;direction:ltr;block-progression:tb;baseline-shift:baseline;color:#000000;enable-background:accumulate;" d="m 50.000001,962.36216 c -22.10908,0 -40,17.88103 -40,40.00004 0,22.1085 17.8915,40 40,40 22.118968,0 39.999998,-17.8909 39.999998,-40 0,-22.11959 -17.88046,-40.00004 -39.999998,-40.00004 z m -15.25,23 a 2.0002,2.0002 0 0 1 0.21875,0 2.0002,2.0002 0 0 1 1.4375,0.59375 l 13.59375,13.5625 13.562498,-13.5625 a 2.0002,2.0002 0 0 1 1.375,-0.59375 2.0002,2.0002 0 0 1 1.46875,3.4375 l -13.593748,13.59374 13.593748,13.5625 a 2.0108526,2.0108526 0 1 1 -2.84375,2.8438 l -13.562498,-13.5938 -13.59375,13.5938 a 2.0108526,2.0108526 0 0 1 -2.84375,-2.8438 l 13.5625,-13.5625 -13.5625,-13.59374 a 2.0002,2.0002 0 0 1 1.1875,-3.4375 z" fill="#a60000" fill-opacity="1" fill-rule="evenodd" stroke="none" marker="none" visibility="visible" display="inline" overflow="visible"/></g></svg>