<svg xmlns="http://www.w3.org/2000/svg" data-name="Layer 1" viewBox="0 0 100 125" x="0px" y="0px"><title>05</title><path d="M68.41,87.32a10,10,0,0,0,10-10V33.55a1,1,0,0,0-.31-.73L57,12.95a1,1,0,0,0-.69-.27H31.59a10,10,0,0,0-10,10V77.32a10,10,0,0,0,10,10ZM57.33,16,74.9,32.55H57.33ZM23.59,77.32V22.68a8,8,0,0,1,8-8H55.33V33.55a1,1,0,0,0,1,1H76.41V77.32a8,8,0,0,1-8,8H31.59A8,8,0,0,1,23.59,77.32Z"/><path d="M33.87,48.62h18a1,1,0,0,0,0-2h-18a1,1,0,0,0,0,2Z"/><path d="M33.87,60.49H66.13a1,1,0,0,0,0-2H33.87a1,1,0,0,0,0,2Z"/><path d="M33.87,72.36H66.13a1,1,0,0,0,0-2H33.87a1,1,0,0,0,0,2Z"/><text x="0" y="115" fill="#000000" font-size="5px" font-weight="bold" font-family="'Helvetica Neue', Helvetica, Arial-Unicode, Arial, Sans-serif">Created by Kirsh</text><text x="0" y="120" fill="#000000" font-size="5px" font-weight="bold" font-family="'Helvetica Neue', Helvetica, Arial-Unicode, Arial, Sans-serif">from the Noun Project</text></svg>